<svg width="44" height="50" viewBox="0 0 44 50" fill="none" xmlns="http://www.w3.org/2000/svg">
<path fill-rule="evenodd" clip-rule="evenodd" d="M25.899 0C45.6812 0.0712998 49.278 24.6784 36.5454 33.2344L44 48.1462V50L29.1306 49.9099L23.3812 36.229H12.8764V49.9099H0L0 6.93463e-07L25.899 0ZM18.48 15.9485L13.7534 15.9489C13.255 15.9489 12.76 16.4876 12.76 17.0263V19.1812C12.76 19.7199 13.255 20.2586 13.75 20.2586L18.48 20.2578L18.4806 24.8349C18.4806 25.318 18.964 25.7981 19.4775 25.8562L19.5805 25.8621H21.7802C22.3301 25.8621 22.88 25.3502 22.88 24.8384V20.2586H27.61C28.0741 20.2586 28.5381 19.7851 28.5943 19.2821L28.6 19.1812V17.0263C28.6 16.4876 28.105 15.949 27.61 15.9489L22.88 15.9483V10.5065C22.88 10.0266 22.3967 9.54674 21.8831 9.48863L21.7802 9.48276H19.5805C19.0306 9.48276 18.4808 9.99461 18.4806 10.5065C18.4802 12.0543 18.48 13.996 18.48 15.9485Z" fill="#484E9E"/>
</svg>
