<?xml version="1.0" encoding="UTF-8"?>
<svg width="50px" height="58px" viewBox="0 0 50 58" version="1.1" xmlns="http://www.w3.org/2000/svg" xmlns:xlink="http://www.w3.org/1999/xlink">
    <title>Combined Shape</title>
    <g id="Stripe-logo" stroke="none" stroke-width="1" fill="none" fill-rule="evenodd">
        <g id="small-logo" fill="#484E9E">
            <path d="M29.4306375,0 C51.9104679,0.0827077659 55.9977098,28.6269887 41.5288735,38.5519206 L41.5288735,38.5519206 L50,55.8495981 L50,58 L33.1029147,57.8954342 L26.5695682,42.0256468 L14.6323259,42.0256476 L14.6323259,57.895437 L0,57.895437 L-5.12661837e-16,8.04417518e-07 L-5.12661837e-16,8.04417518e-07 Z M21.0000004,18.5002708 L15.6288452,18.5007226 C15.0625,18.5007226 14.5,19.1256322 14.5,19.7505419 L14.5,19.7505419 L14.5,22.2501806 C14.5,22.8750903 15.0625,23.5 15.625,23.5 L15.625,23.5 L21,23.499 L21.0007226,28.8084412 C21.0007226,29.3688869 21.5499596,29.9257654 22.1335239,29.993186 L22.2505419,30 L24.7501806,30 C25.3750903,30 26,29.40625 26,28.8125 L26,28.8125 L26,23.5 L31.375,23.5 C31.9023438,23.5 32.4296875,22.950763 32.4935455,22.3671986 L32.5,22.2501806 L32.5,19.7505419 C32.5,19.1256322 31.9375,18.5008968 31.375,18.5007226 L31.375,18.5007226 L26,18.5 L26,12.1875 C26,11.6308594 25.450763,11.0742188 24.8671986,11.006813 L24.7501806,11 L24.7501806,11 L22.2505419,11 C21.6256322,11 21.0008968,11.59375 21.0007226,12.1875 C21.0001957,13.9830296 21.0000103,16.2353135 21.0000004,18.5002708 Z" id="Combined-Shape"></path>
        </g>
    </g>
</svg>