<svg width="550" height="550" viewBox="0 0 550 550" fill="none" xmlns="http://www.w3.org/2000/svg">
<rect width="550" height="550" fill="white"/>
<path d="M406.18 172.059L374.751 158.137C374.574 158.054 370.358 156.079 365.868 160.348C364.357 161.781 347.06 178.688 327.033 198.264C312.693 212.28 297.065 227.554 285.019 239.318L285.005 239.257C284.889 238.768 284.518 238.38 284.037 238.245C283.55 238.092 283.032 238.242 282.681 238.596L255.762 265.515L254.677 264.431C254.389 264.143 253.985 263.983 253.573 264.035C253.167 264.071 252.79 264.292 252.558 264.627C252.237 265.089 243.539 277.027 143.608 373.544C143.34 373.801 143.188 374.155 143.185 374.526C143.182 374.896 143.329 375.253 143.589 375.513L160.045 391.969C160.305 392.229 160.656 392.373 161.024 392.373C161.456 392.459 161.76 392.218 162.02 391.953C258.537 292.022 270.475 283.321 270.925 283.009C271.269 282.779 271.493 282.405 271.531 281.996C271.573 281.584 271.426 281.174 271.133 280.884L270.076 279.827L281.021 268.882C281.325 268.581 281.472 268.149 281.414 267.726C281.322 267.02 281.262 266.331 281.226 265.654C284.681 263.792 291.789 266.237 296.733 271.173C296.818 271.259 296.921 271.306 297.02 271.364C297.073 271.394 297.117 271.441 297.172 271.463C297.344 271.538 297.527 271.577 297.712 271.577C297.881 271.577 298.049 271.541 298.21 271.48C298.263 271.461 298.307 271.419 298.359 271.392C298.451 271.342 298.545 271.303 298.625 271.234L304.178 266.367C304.208 266.342 304.219 266.306 304.247 266.276C304.332 266.188 304.41 266.093 304.471 265.983C304.504 265.922 304.523 265.858 304.548 265.792C304.57 265.731 304.606 265.678 304.62 265.612L305.835 259.871L307.572 261.667C307.727 261.827 307.915 261.93 308.112 261.999C308.139 262.015 308.148 262.051 308.175 262.068C308.383 262.181 308.61 262.237 308.834 262.237C309.191 262.237 309.545 262.098 309.813 261.833L309.874 261.772C310.151 261.495 310.278 261.138 310.264 260.784L311.404 255.403L313.139 257.199C313.49 257.567 314.021 257.705 314.516 257.567C315.009 257.426 315.38 257.024 315.487 256.524L316.699 250.786L318.431 252.581C318.785 252.946 319.314 253.088 319.809 252.949C320.301 252.808 320.672 252.407 320.78 251.906L321.995 246.163L323.732 247.958C324.086 248.323 324.612 248.459 325.11 248.326C325.602 248.185 325.973 247.784 326.081 247.283L327.295 241.542L329.03 243.338C329.384 243.703 329.913 243.842 330.408 243.706C330.9 243.565 331.271 243.164 331.379 242.663L332.594 236.922L334.331 238.718C334.688 239.086 335.222 239.221 335.709 239.086C336.201 238.945 336.572 238.543 336.68 238.043L337.894 232.302L339.629 234.097C339.98 234.465 340.512 234.604 341.007 234.465C341.499 234.324 341.87 233.923 341.978 233.422L343.192 227.679L344.93 229.474C345.284 229.842 345.81 229.981 346.308 229.842C346.8 229.701 347.171 229.3 347.279 228.799L348.493 223.056L350.231 224.851C350.585 225.219 351.116 225.352 351.609 225.219C352.101 225.078 352.472 224.677 352.58 224.176L353.794 218.433L355.532 220.228C355.886 220.596 356.414 220.729 356.909 220.596C357.402 220.455 357.773 220.054 357.88 219.553L359.095 213.81L360.832 215.605C361.189 215.973 361.721 216.112 362.21 215.973C362.703 215.832 363.073 215.431 363.181 214.93L364.396 209.184L366.133 210.98C366.487 211.348 367.027 211.483 367.511 211.348C368.004 211.206 368.374 210.805 368.482 210.304L369.697 204.564L371.431 206.359C371.786 206.724 372.314 206.863 372.809 206.727C373.302 206.586 373.672 206.185 373.78 205.684L374.995 199.941L376.732 201.736C377.089 202.104 377.62 202.248 378.11 202.104C378.602 201.963 378.973 201.562 379.081 201.061L380.296 195.318L382.033 197.113C382.39 197.481 382.921 197.617 383.411 197.481C383.903 197.34 384.274 196.939 384.382 196.438L385.599 190.692L387.339 192.487C387.696 192.855 388.228 192.991 388.717 192.855C389.21 192.714 389.58 192.313 389.688 191.812L390.903 186.066L392.643 187.862C393 188.23 393.534 188.371 394.021 188.23C394.513 188.089 394.884 187.687 394.992 187.187L396.173 181.606L397.709 183.366C397.983 183.681 398.381 183.853 398.802 183.842C399.219 183.825 399.607 183.623 399.858 183.288L406.722 174.147C406.974 173.813 407.063 173.378 406.955 172.969C406.847 172.559 406.568 172.227 406.18 172.059ZM161.008 389.023L146.541 374.556C148.951 372.229 151.291 369.964 153.596 367.734L167.83 381.968C165.603 384.27 163.337 386.613 161.008 389.023ZM169.758 379.979L155.588 365.808C216.03 307.275 239.809 282.782 249.061 272.786L262.778 286.503C252.782 295.754 228.289 319.534 169.758 379.979ZM264.82 284.63L250.934 270.744C252.309 269.228 253.225 268.177 253.814 267.477L266.424 280.087L267.144 280.806L268.087 281.75C267.387 282.339 266.333 283.258 264.82 284.63ZM268.12 277.874L262.919 272.672L257.718 267.471L282.88 242.309L283.945 246.827C282.554 248.744 278.373 255.367 278.47 264.575C278.426 264.799 278.431 265.026 278.498 265.247C278.523 265.963 278.509 266.661 278.589 267.405L268.12 277.874ZM398.674 180.267L396.439 177.705C396.093 177.307 395.556 177.147 395.05 177.274C394.541 177.407 394.154 177.813 394.043 178.328L392.826 184.077L391.086 182.279C390.729 181.911 390.192 181.775 389.708 181.911C389.215 182.052 388.845 182.453 388.737 182.954L387.522 188.7L385.782 186.904C385.425 186.536 384.891 186.401 384.404 186.536C383.912 186.678 383.541 187.079 383.433 187.579L382.216 193.326L380.478 191.53C380.124 191.162 379.585 191.027 379.1 191.162C378.608 191.303 378.237 191.704 378.129 192.205L376.915 197.949L375.177 196.153C374.821 195.785 374.289 195.644 373.8 195.785C373.307 195.926 372.936 196.328 372.829 196.828L371.614 202.572L369.879 200.776C369.522 200.408 368.991 200.267 368.502 200.408C368.009 200.549 367.638 200.951 367.53 201.451L366.316 207.195L364.578 205.399C364.222 205.031 363.69 204.896 363.201 205.031C362.708 205.172 362.338 205.574 362.23 206.074L361.015 211.818L359.278 210.022C358.921 209.652 358.387 209.516 357.9 209.654C357.407 209.795 357.037 210.197 356.929 210.697L355.714 216.441L353.977 214.645C353.623 214.277 353.091 214.133 352.599 214.277C352.107 214.418 351.736 214.82 351.628 215.32L350.413 221.064L348.676 219.268C348.319 218.9 347.785 218.762 347.298 218.9C346.806 219.041 346.435 219.443 346.327 219.943L345.113 225.687L343.375 223.891C343.018 223.523 342.487 223.385 341.997 223.523C341.505 223.665 341.134 224.066 341.026 224.566L339.812 230.307L338.077 228.512C337.723 228.144 337.189 228.003 336.699 228.144C336.207 228.285 335.836 228.686 335.728 229.187L334.514 234.93L332.776 233.135C332.422 232.767 331.891 232.634 331.398 232.767C330.906 232.908 330.535 233.309 330.427 233.81L329.213 239.55L327.478 237.755C327.121 237.387 326.59 237.246 326.1 237.387C325.608 237.528 325.237 237.929 325.129 238.43L323.915 244.171L322.177 242.375C321.823 242.007 321.289 241.869 320.799 242.007C320.307 242.148 319.936 242.549 319.828 243.05L318.614 248.791L316.882 246.995C316.525 246.627 315.997 246.486 315.504 246.627C315.012 246.769 314.641 247.17 314.533 247.671L313.321 253.408L311.587 251.613C311.232 251.245 310.704 251.104 310.209 251.245C309.716 251.386 309.346 251.787 309.238 252.288L307.998 258.139L306.015 256.087C305.66 255.719 305.129 255.578 304.637 255.719C304.144 255.86 303.774 256.261 303.666 256.762L302.009 264.599L297.745 268.334C292.915 263.994 286.023 261.205 281.264 262.616C281.823 253.918 286.457 248.091 286.515 248.022C286.787 247.69 286.892 247.247 286.792 246.829L285.763 242.461C297.955 230.562 314.162 214.72 328.969 200.245C348.989 180.677 366.28 163.775 367.774 162.356C370.828 159.454 373.451 160.588 373.589 160.652L403.472 173.887L398.674 180.267Z" fill="black"/>
</svg>
