<svg width="550" height="550" viewBox="0 0 550 550" fill="none" xmlns="http://www.w3.org/2000/svg">
<g clip-path="url(#clip0)">
<rect width="550" height="550" fill="white"/>
<path d="M516.284 352.918L500.03 311.983C499.943 311.748 497.859 306.158 489.921 306.033C487.254 305.989 456.262 305.932 420.377 305.866C394.685 305.819 366.685 305.766 345.111 305.716L345.153 305.648C345.486 305.096 345.495 304.409 345.176 303.853C344.867 303.277 344.26 302.95 343.621 302.958L294.844 303.425L294.825 301.46C294.82 300.938 294.595 300.429 294.171 300.107C293.766 299.775 293.224 299.64 292.711 299.738C292.003 299.872 273.335 302.986 95.3275 301.596C94.8512 301.591 94.3943 301.778 94.0591 302.115C93.7239 302.451 93.5377 302.909 93.5423 303.38L93.8275 333.198C93.832 333.669 94.0243 334.116 94.3609 334.446C94.6786 334.912 95.173 334.965 95.6492 334.955C273.597 330.16 292.324 332.913 293.017 333.032C293.536 333.13 294.077 332.989 294.479 332.65C294.887 332.31 295.121 331.804 295.113 331.275L295.095 329.36L314.926 329.17C315.475 329.167 315.997 328.904 316.323 328.465C316.873 327.738 317.435 327.053 318.011 326.401C322.842 327.798 327.148 336.413 327.241 345.364C327.243 345.519 327.294 345.654 327.333 345.796C327.354 345.871 327.352 345.954 327.383 346.024C327.473 346.246 327.605 346.446 327.775 346.612C327.929 346.763 328.116 346.882 328.317 346.97C328.383 347 328.46 347.001 328.533 347.023C328.661 347.06 328.782 347.109 328.918 347.117L338.363 347.649C338.413 347.653 338.456 347.63 338.508 347.627C338.666 347.623 338.821 347.607 338.976 347.56C339.061 347.534 339.136 347.493 339.218 347.455C339.293 347.419 339.373 347.403 339.446 347.355L345.708 343.194L345.686 346.395C345.684 346.681 345.764 346.944 345.881 347.183C345.892 347.223 345.867 347.264 345.877 347.304C345.965 347.593 346.123 347.848 346.328 348.049C346.655 348.369 347.103 348.56 347.587 348.558L347.697 348.557C348.198 348.552 348.635 348.34 348.94 348.004L354.811 344.105L354.786 347.304C354.778 347.955 355.139 348.559 355.716 348.876C356.293 349.189 356.993 349.155 357.541 348.794L363.798 344.633L363.771 347.829C363.767 348.481 364.124 349.084 364.701 349.402C365.278 349.715 365.977 349.681 366.525 349.319L372.789 345.156L372.767 348.357C372.764 349.009 373.123 349.605 373.697 349.93C374.274 350.243 374.973 350.209 375.521 349.848L381.784 345.687L381.759 348.885C381.755 349.537 382.114 350.138 382.689 350.458C383.266 350.771 383.965 350.737 384.513 350.376L390.775 346.215L390.753 349.416C390.75 350.073 391.116 350.676 391.683 350.989C392.26 351.302 392.959 351.267 393.507 350.906L399.77 346.745L399.745 349.944C399.736 350.596 400.098 351.199 400.675 351.517C401.252 351.83 401.951 351.796 402.499 351.434L408.764 347.271L408.742 350.472C408.735 351.127 409.092 351.725 409.672 352.045C410.249 352.358 410.948 352.324 411.496 351.962L417.761 347.799L417.739 351C417.732 351.655 418.099 352.253 418.669 352.573C419.246 352.886 419.945 352.852 420.493 352.491L426.757 348.327L426.735 351.528C426.729 352.183 427.093 352.778 427.665 353.101C428.242 353.414 428.941 353.38 429.489 353.019L435.754 348.855L435.732 352.056C435.728 352.713 436.09 353.316 436.662 353.629C437.239 353.942 437.938 353.908 438.486 353.547L444.753 349.381L444.731 352.582C444.725 353.236 445.097 353.844 445.661 354.155C446.238 354.468 446.937 354.433 447.485 354.072L453.747 349.911L453.723 353.11C453.719 353.762 454.078 354.363 454.653 354.683C455.23 354.996 455.929 354.962 456.477 354.6L462.742 350.437L462.72 353.638C462.716 354.295 463.073 354.903 463.65 355.211C464.227 355.524 464.926 355.49 465.474 355.128L471.738 350.965L471.716 354.166C471.713 354.823 472.077 355.424 472.646 355.739C473.223 356.052 473.922 356.018 474.471 355.657L480.74 351.493L480.721 354.697C480.717 355.354 481.081 355.954 481.651 356.27C482.228 356.583 482.927 356.548 483.475 356.187L489.742 352.021L489.722 355.225C489.719 355.882 490.08 356.49 490.652 356.798C491.229 357.111 491.929 357.076 492.477 356.715L498.564 352.671L498.39 355.658C498.357 356.193 498.568 356.707 498.962 357.074C499.359 357.434 499.895 357.597 500.426 357.516L514.906 355.315C515.437 355.235 515.907 354.917 516.176 354.445C516.445 353.974 516.487 353.42 516.284 352.918ZM97.352 331.367L97.1012 305.154C101.393 305.188 105.567 305.216 109.676 305.244L109.923 331.036C105.82 331.143 101.645 331.253 97.352 331.367ZM113.471 330.947L113.226 305.27C221.032 305.969 264.76 304.903 282.191 304.062L282.429 328.917C264.985 328.41 221.245 328.181 113.471 330.947ZM285.977 329.036L285.736 303.876C288.354 303.723 290.135 303.583 291.302 303.471L291.521 326.321L291.534 327.624L291.55 329.334C290.381 329.244 288.593 329.139 285.977 329.036ZM295.058 325.818L294.968 316.394L294.878 306.969L340.471 306.533L337.392 311.621C334.398 312.126 324.632 314.433 316.458 322.941C316.217 323.106 316.018 323.319 315.88 323.581C315.26 324.259 314.622 324.884 314.028 325.637L295.058 325.818ZM502.053 353.691L502.308 349.341C502.349 348.667 502.002 348.038 501.425 347.7C500.84 347.365 500.121 347.39 499.558 347.761L493.286 351.927L493.308 348.721C493.311 348.064 492.942 347.458 492.378 347.148C491.8 346.835 491.101 346.869 490.553 347.23L484.286 351.396L484.306 348.193C484.31 347.536 483.943 346.933 483.376 346.62C482.799 346.307 482.1 346.341 481.552 346.702L475.282 350.866L475.304 347.665C475.31 347.01 474.938 346.402 474.374 346.092C473.797 345.779 473.098 345.813 472.55 346.174L466.285 350.338L466.307 347.137C466.311 346.48 465.952 345.874 465.377 345.564C464.8 345.251 464.101 345.285 463.553 345.646L457.289 349.81L457.313 346.611C457.317 345.954 456.958 345.348 456.383 345.038C455.806 344.725 455.107 344.76 454.559 345.121L448.294 349.284L448.316 346.083C448.32 345.426 447.956 344.825 447.386 344.51C446.809 344.197 446.11 344.231 445.562 344.593L439.298 348.756L439.32 345.555C439.326 344.895 438.959 344.292 438.39 343.982C437.813 343.669 437.114 343.703 436.565 344.065L430.301 348.228L430.323 345.027C430.329 344.372 429.972 343.764 429.393 343.454C428.816 343.141 428.117 343.175 427.569 343.536L421.304 347.7L421.326 344.499C421.33 343.842 420.966 343.236 420.396 342.926C419.819 342.613 419.12 342.647 418.572 343.008L412.307 347.172L412.329 343.971C412.333 343.314 411.971 342.711 411.399 342.398C410.822 342.085 410.123 342.119 409.575 342.48L403.313 346.641L403.338 343.442C403.344 342.788 402.982 342.18 402.408 341.87C401.831 341.557 401.132 341.591 400.584 341.952L394.319 346.116L394.341 342.914C394.347 342.26 393.981 341.662 393.411 341.341C392.834 341.029 392.135 341.063 391.587 341.424L385.325 345.585L385.349 342.386C385.353 341.729 384.994 341.124 384.419 340.813C383.842 340.501 383.143 340.535 382.595 340.896L376.333 345.057L376.355 341.856C376.361 341.201 375.997 340.596 375.425 340.283C374.848 339.97 374.149 340.004 373.601 340.365L367.339 344.526L367.366 341.33C367.369 340.673 367.013 340.07 366.436 339.757C365.859 339.444 365.16 339.478 364.612 339.84L358.355 344.001L358.379 340.802C358.385 340.147 358.029 339.544 357.449 339.229C356.872 338.916 356.173 338.95 355.625 339.312L349.241 343.551L349.268 339.894C349.275 339.239 348.915 338.634 348.338 338.321C347.761 338.008 347.062 338.042 346.514 338.404L337.965 344.085L330.715 343.676C330.191 335.371 326.39 326.636 320.772 323.657C329.088 316.203 338.555 315.032 338.67 315.02C339.216 314.96 339.709 314.65 339.993 314.178L342.972 309.259C364.801 309.316 393.84 309.369 420.371 309.416C456.241 309.481 487.222 309.538 489.862 309.581C495.26 309.667 496.641 313.058 496.711 313.24L512.166 352.16L502.053 353.691Z" fill="black"/>
<path d="M399.404 277.322C403.219 276.186 448.72 264.745 447.311 257.055C445.836 254.562 444.361 252.069 440.977 253.174C425.378 259.038 419.449 248.638 407.96 226.944C396.472 205.251 375.627 192.01 392.578 186.916C396.393 185.78 402.884 185.754 400.704 179.416C398.433 171.787 386.775 172.178 369.084 179.056C354.777 184.828 331.087 192.563 327.481 202.772C321.904 215.718 318.794 220.699 307.998 221.029C297.201 221.36 281.237 222.056 281.237 222.056C281.237 222.056 286.461 271.459 302.913 277.653C318.965 284.308 333.646 271.585 348.871 272.672C367.632 274.808 386.237 280.85 399.404 277.322ZM303.457 248.617C300.042 249.291 296.875 247.351 296.231 244.367C295.557 240.952 297.497 237.786 300.481 237.142C303.896 236.467 307.063 238.408 307.706 241.392C308.411 245.237 306.01 248.004 303.457 248.617ZM305.819 257.539C309.233 256.864 312.4 258.805 313.044 261.789C313.718 265.203 311.778 268.37 308.794 269.014C305.379 269.688 302.213 267.748 301.569 264.764C300.925 261.78 302.865 258.613 305.819 257.539ZM326.555 250.879C323.14 251.553 319.973 249.613 319.33 246.629C318.655 243.214 320.595 240.047 323.579 239.403C326.994 238.729 330.161 240.669 330.805 243.653C331.449 246.637 329.939 249.774 326.555 250.879ZM392.614 266.982C388.368 268.148 384.801 266.669 382.435 263.806C372.787 249.773 361.968 237.554 348.687 227.241C347.304 226.04 346.321 224.378 346.169 222.225C344.942 217.118 348.914 212.077 353.59 210.88C356.543 209.806 360.049 210.424 361.463 212.055C376.127 223.569 388.359 237.419 398.53 252.714C398.56 253.144 399.483 253.945 399.513 254.375C401.231 260.313 397.721 265.755 392.614 266.982Z" fill="black"/>
<path d="M345.421 278.975C333.241 278.105 318.438 289.107 299.742 281.773C285.043 275.887 278.366 236.542 277.174 225.806L59.1219 226.943L60.123 290.062L62.9548 287.265L65.7519 290.096L68.5532 286.869L71.3503 289.701L73.2904 286.534L76.0874 289.366L79.3499 286.538L82.147 289.37L84.9788 286.573L87.7759 289.405L90.6077 286.607L93.4047 289.439L96.2365 286.642L99.0336 289.474L101.865 286.677L104.663 289.509L107.494 286.712L110.291 289.544L113.123 286.746L115.92 289.578L118.752 286.781L121.549 289.613L124.381 286.816L127.178 289.648L130.01 286.851L132.807 289.683L135.639 286.885L138.436 289.717L142.098 286.429L144.896 289.26L147.727 286.463L150.524 289.295L153.356 286.498L156.153 289.33L158.985 286.533L161.782 289.365L164.614 286.568L167.411 289.399L170.243 286.602L173.04 289.434L175.872 286.637L178.669 289.469L181.501 286.672L184.298 289.504L187.13 286.707L189.927 289.538L192.758 286.741L195.555 289.573L198.387 286.776L201.184 289.608L204.016 286.811L206.813 289.643L209.645 286.846L212.442 289.677L215.274 286.88L218.071 289.712L220.903 286.915L223.7 289.747L226.532 286.95L229.329 289.782L232.161 286.985L234.958 289.816L237.789 287.019L240.587 289.851L243.418 287.054L246.215 289.886L249.047 287.089L251.844 289.921L254.676 287.124L257.473 289.955L260.305 287.158L263.102 289.99L265.934 287.193L268.731 290.025L271.563 287.228L274.36 290.06L277.192 287.263L279.989 290.094L282.821 287.297L285.618 290.129L288.449 287.332L291.246 290.164L294.078 287.367L296.875 290.199L299.707 287.401L302.504 290.233L305.336 287.436L308.133 290.268L310.965 287.471L313.762 290.303L316.594 287.506L319.391 290.338L322.223 287.54L325.02 290.372L327.852 287.575L330.649 290.407L333.48 287.61L336.278 290.442L339.109 287.645L345.721 289.341L345.691 288.91L345.421 278.975Z" fill="black"/>
</g>
<defs>
<clipPath id="clip0">
<rect width="550" height="550" fill="white"/>
</clipPath>
</defs>
</svg>
