<svg xmlns="http://www.w3.org/2000/svg" version="1.1" viewBox="-10 10 110.0 135.0">
 <path d="m13.645 18.922h72.711c2.1914 0 4.1797 0.89453 5.6211 2.3359 1.4414 1.4414 2.3359 3.4336 2.3359 5.6211v46.238c0 2.1914-0.89453 4.1797-2.3359 5.6211-1.4414 1.4414-3.4336 2.3359-5.6211 2.3359l-72.711 0.003906c-2.1914 0-4.1797-0.89453-5.6211-2.3359-1.4414-1.4414-2.3359-3.4336-2.3359-5.6211v-46.238c0-2.1914 0.89453-4.1797 2.3359-5.6211 1.4414-1.4453 3.4297-2.3398 5.6211-2.3398zm75.391 57.297-28.445-23.719-4.2383 3.5312c-1.7578 1.4648-4.0469 2.207-6.3164 2.2188-2.2734 0.011719-4.5586-0.71094-6.3047-2.168l-4.2969-3.582-28.457 23.73c0.71875 0.61719 1.6523 0.99609 2.668 0.99609h72.711c1.0195-0.003906 1.957-0.38281 2.6797-1.0078zm-79.492-3.7891 26.895-22.43-26.895-22.43zm1.4336-48.66 29.652 24.727 0.054688 0.042968 5.5 4.5859c1.0312 0.85938 2.4258 1.2852 3.8359 1.2812 1.418-0.007812 2.8242-0.44922 3.8789-1.3281l5.4414-4.5391 0.050781-0.042968 29.645-24.719c-0.72266-0.625-1.6602-1.0039-2.6797-1.0039l-72.711 0.003906c-1.0156 0-1.9492 0.375-2.668 0.99219zm79.484 3.8203-26.875 22.41 26.871 22.41v-44.82z" fill-rule="evenodd"/></svg>